<?xml version="1.0" encoding="utf-8"?>
<!-- Generator: Adobe Illustrator 24.2.3, SVG Export Plug-In . SVG Version: 6.00 Build 0)  -->
<svg version="1.1" id="Layer_1" xmlns="http://www.w3.org/2000/svg" xmlns:xlink="http://www.w3.org/1999/xlink" x="0px" y="0px"
	 viewBox="0 0 611.1 223.4" style="enable-background:new 0 0 611.1 223.4;" xml:space="preserve">
<g>
	<path d="M120.4,0c0.5,0.1,1,0.2,1.5,0.2c11,0.5,21.5,2.8,31.8,6.6c8.2,3.1,16,7.1,23.5,11.6c1.4,0.9,2.8,1.8,4.2,2.7
		c0.3,0.2,0.3,0.4,0.2,0.6c0,0,0,0,0,0c-0.2-0.2-0.5-0.4-0.7-0.5c-9.1-4-18.5-7.1-28.2-9.1c-4.1-0.9-8.2-1.5-12.3-2
		c-3.3-0.4-6.5-0.6-9.8-0.8c-5-0.2-10-0.1-15,0.3c-12.7,1-24.9,4.1-36.6,9.1c-8.7,3.8-16.9,8.5-24.2,14.7
		C41.7,44.6,32.1,58,26.4,74.1c-2,5.7-3.4,11.5-4,17.5c-0.5,4.6-0.6,9.2-0.2,13.8c0.2,1.9,0.5,3.8,0.7,5.7c0.1,0.5,0.1,1,0.5,1.5
		c0.3-1.9,0.6-3.7,1-5.5c4.1-20.4,13-38.3,27.4-53.4c11.1-11.5,24.3-19.6,39.7-23.9c4.4-1.2,8.9-2.1,13.4-2.7
		c5.7-0.7,11.4-0.9,17.1-0.5c23.3,1.8,43.4,10.6,60.5,26.5c3.5,3.3,6.7,6.9,9.7,10.7c0.3,0.4,0.6,0.7,0.8,1.1
		c0.1,0.1,0.2,0.3,0.2,0.4c-0.6-0.2-0.6-0.2-1-0.6c-4-3.7-8.5-6.7-13.4-9c-5-2.4-10.3-4-15.7-5.2c-5.4-1.1-10.9-1.8-16.4-2.2
		c-4.7-0.3-9.4-0.5-14.1-0.4c-5.4,0-10.8,0.3-16.2,0.4c-5.8,0.2-11.5,0.3-17.3,0.5C98,49,96.9,49,95.9,49c-0.3,0.7-0.3,1.4-0.3,2
		c0,4.1-0.1,8.2-0.1,12.3c0,14.2,0,28.4,0,42.7c0,28.2,0,56.4,0,84.5c0,0.6-0.1,1.2,0.2,1.9c0.9,0.2,1.9,0.3,2.8,0.3
		c2.3,0,4.7,0.1,7,0.1c7.6,0,15.2,0,22.8,0c4.1,0,8.1,0,12.2,0c4.8,0,9.5-0.2,14.3-0.6c6.2-0.6,12.3-1.6,18.3-3.7
		c9.2-3.2,16.9-8.6,23-16.2c0.5-0.7,1.1-1.3,1.8-2.2c0,0.7-0.4,1.1-0.6,1.5c-3.4,5.8-7.3,11.3-11.7,16.4
		c-14.3,16.3-31.9,27-52.9,32.3c-4.4,1.1-8.8,1.9-13.3,2.3c-2.1,0.2-4.1,0.4-6.2,0.6c-0.5,0-1-0.1-1.4,0.3c-2.3,0-4.7,0-7,0
		c-0.5-0.4-1.2-0.3-1.8-0.3c-4.2-0.3-8.5-0.7-12.7-1.4c-6.7-1.2-13.3-2.9-19.7-5.3c-14.1-5.4-26.3-13.5-36.9-24.2
		C22.4,180.9,13.9,167.9,8,153.2c-4.5-11.3-7.2-22.9-7.7-35.1c0-0.6-0.1-1.1-0.2-1.7c-0.1-0.7-0.2-1.3-0.2-2c0-1.7-0.1-3.4,0.3-5.1
		c0.1-0.4,0.1-0.9,0.1-1.4c0.1-3.5,0.5-7,1-10.4c1.4-9.2,4-18.1,7.7-26.6C15.2,56.8,23.9,44.4,35,33.6C49.2,19.8,65.7,10,84.8,4.4
		c7.9-2.3,16-3.8,24.3-4.2c0.4,0,0.9-0.2,1.3-0.2C113.7,0,117.1,0,120.4,0z"/>
	<path d="M613.3,182.4c-0.5,0-0.9,0-1.4,0c-20.7,0-41.4,0-62.1,0c-0.5,0-1.1,0-1.5,0c-0.1-0.1-0.2-0.2-0.2-0.2c0,0,0-0.1,0-0.1
		c0-31.8,0-63.5,0-95.3c0-0.4,0-0.7,0-1.1c0.3-0.1,0.6-0.2,0.9-0.2c0.4,0,0.8,0,1.2,0c19.7,0,39.4,0,59.1,0c0.6,0,1.3-0.1,2,0.2
		c0,0.2,0.1,0.4,0.1,0.6c0,5.7,0,11.4,0,17.1c0,0.1-0.1,0.3-0.1,0.5c-0.6,0.2-1.2,0.1-1.8,0.1c-10.9,0-21.8,0-32.7,0
		c-0.5,0-1,0-1.5,0c-0.2,0-0.4,0.1-0.6,0.1c-0.3,0.5-0.2,1.1-0.2,1.6c0,5.3,0,10.6,0,15.9c0,0.5,0,1,0,1.6c0.3,0.1,0.6,0.1,0.9,0.1
		c0.5,0,0.9,0,1.4,0c10.2,0,20.5,0,30.7,0c0.6,0,1.2,0,1.9,0c0.1,0.3,0.1,0.5,0.1,0.8c0,5.5,0,11,0,16.5c0,0.2-0.1,0.4-0.1,0.6
		c-0.5,0.3-1,0.2-1.5,0.2c-4.5,0-8.9,0-13.4,0c-6.1,0-12.2,0-18.2,0c-0.5,0-1.1,0-1.7,0.1c0,0.3-0.1,0.5-0.1,0.8
		c0,6.9,0,13.9,0,20.8c0,0.2,0,0.5,0.1,0.8c0.6,0.2,1.1,0.1,1.7,0.1c6.7,0,13.5,0,20.2,0c5.1,0,10.2,0,15.3,0c0.6,0,1.1,0,1.7,0
		C613.3,170.1,613.3,176.3,613.3,182.4z"/>
	<path d="M410.9,223.4c-0.5-0.5-1.2-0.4-1.9-0.5c-0.9-0.2-1.9-0.4-2.8-0.7c-3.9-1.4-6.5-4.2-7.7-8.1c-1-3.1-1.1-6.2-0.3-9.3
		c1.2-4.8,4.2-8.1,8.9-9.8c4.1-1.4,8.2-1.4,12.4-0.2c0.2,0.1,0.5,0.2,0.7,0.3c0.1,0,0.1,0.1,0.3,0.3c-0.2,0.7-0.4,1.5-0.8,2.4
		c-0.5-0.1-1-0.3-1.5-0.4c-2.9-0.8-5.8-0.9-8.7-0.1c-4.3,1.1-7,4-7.9,8.3c-0.6,2.6-0.5,5.1,0.3,7.6c1.2,3.7,3.6,6.1,7.4,7.1
		c2.6,0.7,5.2,0.6,7.8,0c0.3-0.1,0.6-0.2,0.9-0.4c0.2-1.5,0.1-3,0.1-4.5c0-1.5,0-2.9,0-4.5c-2-0.3-4,0-6-0.2
		c-0.4-0.8-0.2-1.5-0.1-2.3c0.2-0.1,0.4-0.1,0.6-0.1c2.8,0,5.6,0,8.3,0c0.1,0,0.3,0.1,0.4,0.2c0.2,1.2,0.2,11.9,0,13.4
		c-0.4,0.1-0.9,0.4-1.3,0.5c-1.4,0.3-2.9,0.6-4.3,0.9c-0.5,0.1-1,0.3-1.5,0.4C413.2,223.4,412,223.4,410.9,223.4z"/>
	<path d="M495.7,223.4c0-2.7,0-5.5,0-8.2c0-6.3,0-12.5,0-18.8c0-0.5,0-1.1,0-1.7c1.1-0.3,2.1-0.2,3.3-0.1c0,0.4,0.1,0.8,0.1,1.2
		c0,3.1,0,6.2,0,9.2c0,0.5,0,1,0.1,1.5c1.4,0.2,13.2,0.2,14.5,0c0.1-1.9,0-3.9,0.1-5.9c0-2,0-3.9,0-6c1.1-0.4,2.1-0.2,3.2-0.2
		c0.3,0.6,0.2,1.2,0.2,1.7c0,3.9,0,7.9,0,11.8c0,4.4,0,8.9,0,13.3c0,0.7-0.1,1.3-0.1,2c-1,0-2,0-3,0c-0.3-0.5-0.2-1.1-0.2-1.6
		c0-3.6,0-7.3,0-10.9c0-0.4,0.1-0.9-0.2-1.3c-0.1,0-0.3-0.1-0.4-0.1c-4.4,0-8.8,0-13.2,0c-0.2,0-0.5,0.1-0.8,0.2c0,0.6,0,1.2,0,1.7
		c0,3.5,0,7.1,0,10.6c0,0.5,0.1,1-0.3,1.4C497.7,223.4,496.7,223.4,495.7,223.4z"/>
	<path d="M600.5,223.4c-0.3-0.5-0.2-1.1-0.2-1.6c0-3.7,0-7.5,0-11.2c0-3.8,0-7.7,0-11.5c0-0.5,0-1.1-0.1-1.7c-0.5,0-0.9-0.1-1.2-0.1
		c-2,0-3.9,0-5.9,0c-0.5,0-1,0-1.5-0.1c-0.3-0.8-0.2-1.6-0.1-2.4c0.1-0.1,0.1-0.1,0.2-0.1c0,0,0.1-0.1,0.1-0.1c6.7,0,13.5,0,20.2,0
		c0.2,0,0.4,0,0.7,0.1c0.3,0.8,0.1,1.6,0.1,2.4c-0.5,0-0.9,0.1-1.3,0.1c-2,0-4.1,0-6.1,0c-0.5,0-1,0-1.5,0.1
		c-0.3,0.7-0.2,1.3-0.2,1.9c0,7.4,0,14.9,0,22.3c0,0.7-0.1,1.3-0.1,2C602.6,223.4,601.6,223.4,600.5,223.4z"/>
	<path d="M230.1,223.4c-0.3-0.5-0.2-1-0.2-1.5c0-2.7,0-5.5,0-8.2c0-5.8,0-11.6,0-17.4c0-0.5,0-1.1,0.1-1.7c1.1-0.2,2.1-0.1,3-0.1
		c0.4,0.4,0.3,0.8,0.3,1.2c0,2.2,0,4.4,0,6.7c0,5.4,0,10.8,0,16.2c0,0.5-0.1,1.1,0.1,1.6c0.5,0.3,1,0.2,1.5,0.2c3.1,0,6.3,0,9.4,0
		c0.5,0,1,0,1.5,0.1c0.3,1,0.1,2,0.1,2.9C240.7,223.4,235.4,223.4,230.1,223.4z"/>
	<path d="M320.4,223.4c-0.1-0.5-0.2-1-0.2-1.5c0-8.6,0-17.3,0-25.9c0-0.4,0-0.9,0.1-1.4c1.1-0.3,2-0.1,3.1-0.1
		c0.1,0.3,0.2,0.6,0.2,0.9c0,0.4,0,0.7,0,1.1c0,8.3,0,16.7,0,25c0,0.7-0.1,1.3-0.1,2C322.4,223.4,321.4,223.4,320.4,223.4z"/>
	<path d="M504.1,85.6c1.5-0.2,17.5-0.3,22.5-0.1c0.3,0,0.6,0.1,0.9,0.1c0.1,0.2,0.2,0.3,0.2,0.5c0,32.1,0,64.1,0,96.2
		c-0.4,0.4-0.8,0.3-1.2,0.3c-2.9,0-5.8,0-8.7,0c-4.8,0-9.6,0-14.4,0c-0.6,0-1.1,0-1.6,0c-0.6-0.3-0.8-0.9-1-1.4
		c-6.8-11.8-13.5-23.6-20.2-35.4c-4.8-8.4-9.2-17-13.2-25.8c-0.6-1.3-1.1-2.6-1.7-3.9c-0.1-0.2-0.3-0.4-0.5-0.6
		c-0.5,0.2-0.3,0.6-0.3,0.8c0.1,2,0.2,3.9,0.3,5.9c0.2,2.9,0.3,5.9,0.4,8.8c0.3,7.7,0.5,15.5,0.5,23.2c0,8.8,0,17.6,0,26.4
		c0,0.6,0,1.2,0,1.9c-0.3,0.1-0.6,0.1-0.8,0.1c-7.3,0-14.6,0-21.9,0c-0.2,0-0.4,0-0.7-0.1c-0.1-0.3-0.1-0.6-0.1-0.9
		c0-0.4,0-0.8,0-1.2c0-30.9,0-61.8,0-92.7c0-0.7,0-1.3,0-1.9c0.6-0.4,1.2-0.3,1.7-0.3c6.8,0,13.7,0,20.5,0c1.9,0,3.7,0,5.5,0
		c0.6,0.4,0.8,0.9,1.1,1.4c4.4,7.7,8.8,15.5,13.2,23.2c2.4,4.3,4.9,8.6,7.4,12.9c4.9,8.5,9.2,17.2,13.3,26.1c0.2,0.5,0.5,1,0.7,1.5
		c0,0,0.1,0.1,0.1,0.1c0.3,0,0.2-0.3,0.2-0.5c-0.3-3-0.6-6-0.8-9.1c-0.2-1.7-0.3-3.4-0.4-5.1c-0.4-6.6-0.7-13.2-0.8-19.9
		c-0.1-9.6-0.1-19.1-0.1-28.7C504,86.8,503.9,86.2,504.1,85.6z"/>
	<path d="M277.7,85.6c9.6,0,19.1,0,28.7,0c0.1,0.3,0.3,0.6,0.4,1c2.1,7.6,4.1,15.2,6.2,22.8c2.4,9.1,4.9,18.2,7.3,27.2
		c1.9,7.3,3.6,14.6,5,22c0.1,0.3,0,0.7,0.5,0.9c0.1-0.4,0.3-0.7,0.3-1.1c1.9-10.7,4.6-21.1,7.4-31.6c3.5-13.1,7.1-26.3,10.6-39.4
		c0.2-0.7,0.2-1.4,0.7-2c0.9-0.1,26.4-0.2,27.7-0.1c0.1,0,0.3,0.1,0.5,0.2c-0.1,0.3-0.1,0.5-0.2,0.7c-10.9,32-21.8,64-32.7,95.8
		c-0.2,0.1-0.2,0.2-0.3,0.2c0,0-0.1,0-0.1,0c-9.6,0-19.2,0-28.9,0c-0.3,0-0.5,0-0.8,0c-0.1,0-0.2-0.1-0.3-0.1
		C309.1,181.1,278,87.3,277.7,85.6z"/>
	<path d="M132,165.3c-0.2-1.6-0.3-81.3-0.1-88.4c0-0.3,0-0.6,0.1-1c0.5,0,0.9-0.1,1.2-0.1c4.5,0,8.9,0,13.4,0.2
		c3.5,0.1,7,0.6,10.3,1.6c5.8,1.7,10.5,4.9,14.4,9.4c3.7,4.3,6.2,9.2,8,14.5c2.4,7.1,3.4,14.4,3.2,21.9c-0.2,6.9-1.4,13.6-4,20
		c-2,5-4.9,9.6-8.8,13.3c-3.9,3.7-8.4,6.3-13.6,7.6c-0.9,0.2-1.8,0.4-2.7,0.5c-5.7,0.6-11.5,1.1-17.3,1c-0.7,0-1.4,0-2.1-0.1
		C133.3,165.7,132.7,165.6,132,165.3z"/>
	<path d="M255.8,182.3c-1.7,0.2-25,0.2-26.1,0c0,0-0.1-0.1-0.1-0.1c0,0,0-0.1,0-0.1c0-31.9,0-63.7,0-95.6c0-0.2,0-0.4,0-0.6
		c0-0.1,0.1-0.2,0.2-0.3c0.2,0,0.4-0.1,0.7-0.1c3.1-0.2,24.1,0,25.3,0.1c0,0.3,0.1,0.5,0.2,0.8c0,0.4,0,0.7,0,1.1c0,31,0,62,0,93
		C255.9,181.1,255.8,181.7,255.8,182.3z"/>
	<path d="M395.3,85.6c1.3-0.2,22.2-0.3,25.3-0.1c0.2,0,0.5,0.1,0.8,0.1c0,0.2,0.1,0.4,0.1,0.6c0,32,0,64,0,96.1
		c-0.3,0.1-0.6,0.2-0.9,0.2c-1.6,0-3.1,0-4.7,0c-6.3,0-12.6,0-18.8,0c-0.6,0-1.1,0-1.7,0c-0.1-0.4-0.1-0.7-0.2-1c0-0.4,0-0.8,0-1.2
		c0-30.9,0-61.8,0-92.7C395.2,87,395.1,86.3,395.3,85.6z"/>
	<path d="M407.7,77.1c-7.3,0.1-14.4-5.8-14.3-14.4c0-8.1,6.5-14.3,14.3-14.3c7.7,0,14.4,6,14.4,14.3
		C422.1,71.7,414.7,77.3,407.7,77.1z"/>
	<path d="M242.8,48.5c8,0,14.4,6.4,14.3,14.4c0,8.3-6.9,14.3-14.4,14.3c-6.7,0-14.2-5.3-14.3-14.3C228.4,54.3,235.3,48.4,242.8,48.5
		z"/>
	<path d="M441,50.7c-0.5,0.1-0.9,0.2-1.3,0.3c-0.4,0.1-0.6,0.4-0.5,0.8c0.1,0.6,0.2,1.2,0.4,1.8c1,3.4,2,6.8,3,10.2
		c0.4,1.2,0.7,2.3,1.1,3.5c0.1,0.3,0.2,0.7,0.4,1c0.5-0.4,0.6-1,0.8-1.5c1.9-4.8,3.7-9.6,5.6-14.4c0.2-0.5,0.4-1,0.7-1.5
		c0.3-0.6,0.9-0.6,1.3,0c0.3,0.4,0.5,0.9,0.7,1.4c2,4.8,4,9.6,6.1,14.4c0.2,0.5,0.4,0.9,0.7,1.5c0.2-0.4,0.4-0.7,0.4-0.9
		c1.4-4.5,2.8-9.1,4.2-13.6c0.1-0.4,0.2-0.9,0.3-1.3c0.1-0.8-0.2-1.1-0.9-1.3c-0.2,0-0.5,0-0.7-0.1c-0.2-0.1-0.3-0.2-0.6-0.4
		c0.3-0.1,0.4-0.3,0.6-0.3c0.3,0,0.7,0,1.1,0c1.7,0,3.4,0,5.2,0c0.4,0,0.8-0.1,1.1,0.4c-0.3,0.1-0.5,0.3-0.8,0.3
		c-1,0-1.6,0.6-1.9,1.4c-0.6,1.5-1.1,2.9-1.7,4.4c-1.9,5.6-3.9,11.3-5.8,16.9c-0.2,0.5-0.3,1-0.5,1.4c-0.1,0.3-0.3,0.7-0.7,0.7
		c-0.5,0-0.7-0.3-0.9-0.7c-0.2-0.4-0.4-0.8-0.6-1.2c-2-4.8-4.1-9.6-6.1-14.4c-0.2-0.5-0.4-0.9-0.6-1.4c-0.6,0.3-0.6,0.8-0.8,1.3
		c-1.7,4.1-3.3,8.2-4.9,12.2c-0.4,0.9-0.8,1.9-1.2,2.8c-0.2,0.4-0.4,0.7-0.6,1.1c-0.4,0.5-0.9,0.5-1.2-0.1c-0.3-0.5-0.4-1-0.6-1.5
		c-2.3-6.7-4.6-13.4-6.9-20.1c-0.2-0.6-0.4-1.1-0.6-1.7c-0.3-0.7-0.7-1.1-1.5-1.1c-0.2,0-0.5-0.1-0.7-0.2c-0.1,0-0.1-0.1-0.2-0.2
		c0-0.1,0.1-0.2,0.1-0.2c0.1-0.1,0.2-0.1,0.3-0.1c0.3,0,0.5,0,0.8,0c2.3,0,4.7,0,7,0C440.2,50.2,440.6,50.1,441,50.7z"/>
	<path d="M582.5,50.5c0.3,0,0.6-0.1,1-0.1c4.5,0,9,0,13.5,0c1.6,0,3.2,0.2,4.8,0.6c5.1,1.2,8.3,4.6,9,9.8c0.5,4.2-0.6,8-3.7,11.1
		c-1.5,1.5-3.4,2.4-5.4,3c-2.6,0.8-5.4,1-8.1,0.8c-3-0.2-6.1-0.4-9.1-0.2c-0.4,0-0.9,0-1.3-0.1c-0.1,0-0.1-0.1-0.2-0.2
		c0-0.1,0.1-0.2,0.1-0.2c0.4-0.1,0.9-0.2,1.3-0.3c0.5-0.1,0.8-0.4,1-0.8c0.1-0.5,0.2-1,0.2-1.5c0.1-1.5,0.1-3,0.1-4.5
		c0-4,0-8.1,0-12.1c0-1-0.1-1.9-0.1-2.9c0-0.9-0.5-1.4-1.3-1.6c-0.5-0.1-1.1-0.2-1.6-0.3C582.5,50.9,582.4,50.8,582.5,50.5z
		 M590.5,62.1C590.5,62.1,590.5,62.1,590.5,62.1c0,2.5,0,5.1,0,7.6c0,0.7,0.1,1.3,0.1,2c0.1,1.1,0.7,1.7,1.7,2.1
		c0.2,0.1,0.5,0.1,0.7,0.2c2.2,0.4,4.3,0.4,6.5-0.3c3.2-0.9,5.2-2.9,6-6.2c0.5-2.2,0.6-4.3,0.1-6.5c-0.6-3-2-5.4-4.7-6.9
		c-0.8-0.5-1.7-0.9-2.6-1.2c-2-0.7-4.1-0.8-6.1-0.7c-1.5,0.1-1.6,0.2-1.6,1.7C590.5,56.6,590.5,59.3,590.5,62.1z"/>
	<path d="M494.3,49.8c1.7-0.1,3.4,0.2,5.1,0.6c6.7,1.8,9.5,7.2,9,13.2c-0.3,3.6-1.8,6.7-4.6,9.1c-1.5,1.3-3.2,2.1-5.1,2.6
		c-3.2,0.9-6.4,0.9-9.6,0c-5.4-1.5-9-6.2-9.2-11.9c-0.2-6.2,3.5-11.3,9.5-13C491,49.9,492.6,49.7,494.3,49.8z M484.9,61.6
		c0,2.7,0.5,5.3,1.9,7.6c1.8,3.1,4.5,4.7,8.1,4.9c3.2,0.2,5.8-1.4,7.2-4.3c0.3-0.5,0.5-1.1,0.6-1.7c0.5-1.9,0.7-3.8,0.5-5.7
		c-0.1-1.9-0.5-3.8-1.5-5.5c-2-3.5-4.9-5.4-9-5.2c-3.4,0.1-5.9,2-7,5.3C485.1,58.4,485,60,484.9,61.6z"/>
	<path d="M517.7,50.7c0.5,0,1-0.1,1.5-0.1c2.9,0,5.9,0,8.8,0c1.5,0,2.9,0,4.4,0.4c0.5,0.1,1.1,0.3,1.6,0.5c2.8,1.2,4.1,4.3,3.1,7.2
		c-0.4,1.1-1,2-1.7,2.8c-0.8,0.8-1.6,1.6-2.5,2.5c0.1,0.2,0.1,0.4,0.3,0.5c1.9,2.3,3.7,4.5,5.6,6.7c0.6,0.7,1.2,1.3,1.9,2
		c1,1,2.2,1.7,3.7,1.9c0.3,0,0.5,0.2,0.9,0.4c-0.3,0.2-0.5,0.3-0.7,0.3c-1.6,0-3.1,0-4.7,0c-1.6-0.1-3-0.7-4.2-1.9
		c-0.6-0.7-1.2-1.3-1.8-2.1c-1.2-1.6-2.3-3.2-3.5-4.8c-0.4-0.5-0.7-1-1.1-1.5c-1.2-0.1-2.4-0.2-3.7-0.1c-0.1,0.2-0.1,0.4-0.1,0.6
		c0,2,0,3.9,0.1,5.9c0,0.5,0.1,1,0.2,1.5c0.2,1,0.5,1.3,1.5,1.4c0.5,0.1,0.9,0.1,1.4,0.1c0.2,0,0.3,0.2,0.6,0.4
		c-0.4,0.1-0.6,0.3-0.8,0.3c-0.6,0-1.2,0-1.8,0c-2.2-0.1-4.3-0.1-6.5,0c-0.5,0-1,0-1.5-0.1c-0.1,0-0.3-0.2-0.3-0.3
		c0-0.1,0.2-0.3,0.3-0.3c0.3-0.1,0.7-0.1,1-0.2c0.6-0.1,1-0.4,1.1-1c0.1-0.4,0.2-0.9,0.2-1.3c0.1-1.1,0.1-2.2,0.1-3.3
		c0-4.8,0-9.5,0-14.3c0-0.7,0-1.4-0.1-2.1c0-0.7-0.4-1.1-1.1-1.3c-0.5-0.1-1.1-0.2-1.6-0.3c-0.2,0-0.4-0.1-0.5-0.2
		C517.7,51.1,517.7,51,517.7,50.7z M525.5,63.2c1.2,0.6,2.4,0.5,3.6,0.5c0.7,0,1.4-0.3,1.9-0.8c0.8-0.7,1.3-1.5,1.6-2.5
		c0.5-1.5,0.4-3.1-0.1-4.6c-0.5-1.5-1.5-2.6-3-3.1c-1.3-0.4-2.7-0.4-4.2-0.1C525.5,56.2,525.4,59.7,525.5,63.2z"/>
	<path d="M565.5,51c-0.2,0.1-0.4,0.2-0.7,0.3c-0.4,0.1-0.8,0-1.2,0.1c-0.7,0.1-1.1,0.5-1.2,1.2c-0.1,0.4-0.1,0.9-0.1,1.4
		c0,5.4,0,10.8,0,16.2c0,0.7,0.1,1.4,0.3,2.1c0.1,0.7,0.6,1.1,1.2,1.2c0.5,0.1,1.1,0.3,1.6,0.3c1.2,0,2.4,0,3.6,0
		c0.3,0,0.5,0,0.8-0.1c1.3-0.2,2.1-0.9,2.5-2.2c0.1-0.4,0-1.1,0.6-0.9c0.5,0.1,0.3,0.8,0.2,1.2c-0.1,0.8-0.2,1.6-0.3,2.4
		c-0.2,1.4-0.5,1.6-1.9,1.7c-0.3,0-0.6,0-0.9,0c-3-0.1-6.1-0.2-9.1-0.2c-1.4,0-2.8,0.1-4.2,0.1c-0.6,0-1.1,0-1.7-0.1
		c-0.1,0-0.3-0.2-0.2-0.3c0-0.1,0.2-0.3,0.3-0.3c0.3-0.1,0.6-0.1,0.9-0.1c0.8,0,1.2-0.5,1.3-1.2c0.1-0.3,0.1-0.7,0.1-1.1
		c0.1-1.1,0.1-2.2,0.1-3.3c0-4.9,0-9.8,0-14.7c0-0.6,0-1.1-0.1-1.7c-0.1-1-0.5-1.4-1.5-1.6c-0.4-0.1-0.8-0.1-1.2-0.1
		c-0.1,0-0.3-0.2-0.3-0.3c-0.1-0.3,0.2-0.3,0.4-0.4c0.1,0,0.3-0.1,0.5-0.1c3.1,0,6.2,0,9.3,0C564.9,50.5,565.3,50.5,565.5,51z"/>
	<path d="M181.6,21.7c0.1,0,0.2-0.1,0.2-0.1c0,0,0.1,0,0.1,0c0,0-0.1,0.1-0.1,0.1C181.8,21.7,181.7,21.7,181.6,21.7
		C181.6,21.7,181.6,21.7,181.6,21.7z"/>
</g>
</svg>
